<?xml version="1.0" ?><svg enable-background="new 0 0 512 512" height="512px" id="Layer_1" version="1.1" viewBox="0 0 512 512" width="512px" xml:space="preserve" xmlns="http://www.w3.org/2000/svg" xmlns:xlink="http://www.w3.org/1999/xlink"><g><path d="   M307,195c-0.6-10.5-8.4-19-18.5-20.8v-39.8c0-17.4-14.1-31.5-31.5-31.5l0,0c-17.4,0-31.5,14.1-31.5,31.5v39.8   c-10.1,1.8-17.9,10.3-18.5,20.8l-11.6,205h123L307,195z" fill="none" stroke="#ffffff" stroke-linecap="round" stroke-linejoin="round" stroke-miterlimit="10" stroke-width="10"/><path d="   M257,171.2L257,171.2c-9,0-16.3-7.3-16.3-16.3v-16.4c0-9,7.3-16.3,16.3-16.3h0c9,0,16.3,7.3,16.3,16.3v16.4   C273.3,163.9,266,171.2,257,171.2z" fill="none" stroke="#ffffff" stroke-linecap="round" stroke-linejoin="round" stroke-miterlimit="10" stroke-width="10"/><path d="   M309.9,246.4c-15.2,14.3-33.4,22.7-52.9,22.7c-19.5,0-37.6-8.3-52.9-22.7" fill="none" stroke="#ffffff" stroke-linecap="round" stroke-linejoin="round" stroke-miterlimit="10" stroke-width="10"/></g></svg>